<?xml version="1.0" standalone="no"?><!DOCTYPE svg PUBLIC "-//W3C//DTD SVG 1.1//EN" "http://www.w3.org/Graphics/SVG/1.1/DTD/svg11.dtd"><svg class="icon" height="512" viewBox="0 0 1024 1024" version="1.1" xmlns="http://www.w3.org/2000/svg"><path d="M286.5 625.3c-2.7-66.1 8.3-129.9 33.4-191.3 5.3-13 8.6-27 12.4-40.6 5.2-18.7 4.5-37.2-1.4-55.9-8.1-25.7-15.1-51.7-23.5-77.3-2-6.1-6.8-12.4-12.1-15.9-21.7-14.3-44.2-27.3-66.1-41.1-16.4-10.3-16.4-18.1-6.2-34.7 6.4-10.5 10.3-23.4 12-35.7 4.5-32.6 20.8-56.6 49.5-71.5 14.5-7.5 30.3-13.2 46.2-17.4 5.8-1.5 17 1.7 19.4 6.2 11.3 21 30.5 29 51.3 34.7 40.5 11 81.3 11.4 122.1 2 22.7-5.2 42.6-15.9 57.3-34.3 7.1-8.9 15.1-11.4 26.1-8.6 25.7 6.5 48.8 17.9 68.1 36.1 17.2 16.2 21.1 38.1 26 59.9 2.6 11.5 8.2 22.7 14.1 33.1 6 10.6 4.2 21.6-7.4 28.9-21.6 13.6-43.1 27.3-65.3 39.9-9.4 5.4-14.5 12.2-17.2 22.5-5.8 21.9-11.6 43.9-19.3 65.2-9.6 26.7-8.5 52.7 0.2 79.1 11.1 33.6 24.1 66.8 32.1 101.2 14.2 60.4 12.8 122.1 7.9 183.5-7 86.9-23.2 172.3-41.6 257.4-3.9 17.9-12.7 29.4-29.6 34-18.2 4.9-36.7 11.3-55.1 11.6-44.3 0.6-88.7-2-133-3.5-2.3-0.1-4.7-0.8-6.9-1.3-28.5-6.9-46.8-19.6-53-53.1-16.8-90.2-34.6-180.1-40-272-1.1-13.6-0.4-27.4-0.4-41.1z m9-530.1c9.7 27.8 20.1 53.7 27.8 80.3 14.2 49.4 26 99.5 40.4 148.9 8.7 29.7 9 58.6 0 87.8-4 13.1-7.8 26.4-13.1 38.9-22.5 53.2-30.3 109-30.3 166.2 0.1 105.1 19.1 207.8 39.9 310.3 4.2 20.6 14.3 28.9 33 31.1 0.5 0.1 0.9 0.2 1.4 0.2 38.7 1.1 77.3 3.2 116 2.9 16.2-0.1 32.6-4.8 48.5-8.8 4.3-1.1 9.6-6.7 10.6-11.2 23.8-104.3 43-209.3 44.4-316.7 0.8-60-6.6-118.9-30.7-174.6-20.8-48.3-26.5-97.1-6.6-147.4 5.7-14.4 9.4-29.7 13.7-44.7 15.4-54.3 18.5-112.1 48.9-163.1-7-3.8-12.8-6.7-18.3-10-10.7-6.3-18.6-4.3-28.7 3.8-13.4 10.7-28.9 20-44.9 26-40.8 15.3-83.3 15.4-126 9.4-29.8-4.2-59.8-10.6-81.5-32.5-12-12.1-20.7-10.9-32.6-3.8-4.1 2.6-8.2 4.9-11.9 7z m366.5 39l-3.6-1.2-19.5 65.4c1.1 0.5 2.2 1 3.4 1.6 11-6.8 22.1-13.6 31.8-19.7-4.3-16.4-8.2-31.3-12.1-46.1z m-371.8 64.4c1.1-0.7 2.2-1.3 3.3-2-6.3-19.8-12.6-39.6-18.9-59.3-1 0.2-2 0.5-3 0.7-3.8 13.8-7.6 27.7-11.5 42.3 10.3 6.2 20.2 12.2 30.1 18.3z" /></svg>